# xmcd
#
# Track frame offsets:
#	150
#	10329
#	21661
#	31975
#	44006
#	57169
#	68660
#	78162
#	88275
#	101992
#	115015
#	126828
#	137097
#	150008
#	163999
#	178916
#	190346
#	205430
#	219304
#	233026
#	246504
#	260962
#	273540
#	283725
#	296219
#	307605
#	325742
#	339922
#
# Disc length: 4705 seconds
#
# Revision: 1
# Processed by: cddbd v1.5.1PL0 Copyright (c) Steve Scherf et al.
# Submitted via: audiograbber 1.83.01
#
DISCID=aa125f1c
DTITLE=Richard Berry - Yama Yama!
DYEAR=1900
DGENRE=
TTITLE0=Richard Berry - Yama Yama Pretty Mam (take 5)
TTITLE1=Richard Berry - What You Do To Me (take 2)
TTITLE2=Richard Berry - Angel Of My Life (take 5)
TTITLE3=Richard Berry - Big John
TTITLE4=Dreamer featuring Richard Berry - At Last
TTITLE5=Richard Berry and the Dreamers - Daddy Daddy (take 1)
TTITLE6=Richard Berry - Look Out Miss James (take 8)
TTITLE7=Richard Berry and the Cadets - Don't Cha Go
TTITLE8=Richard Berry - The Big Break
TTITLE9=Richard Berry - One Little Prayer
TTITLE10=Richard Berry - I'm Still In Love With You
TTITLE11=Richard Berry - Rockin' Man
TTITLE12=Richard Berry - Crazy Lover
TTITLE13=Etta James and the Peaches - The Wallflower (Roll With Me Henry)
TTITLE14=Richard Berry - Please Tell Me
TTITLE15=Richard Berry - Good Love (take 1)
TTITLE16=Rickey and Jennell - Each Step
TTITLE17=Richard Berry - Get Out Of The Car
TTITLE18=Richard Berry and the Dreamers - Wait For Me
TTITLE19=Etta James - Hey Henry (take 6)
TTITLE20=Richard Berry - Pretty Brown Eyes
TTITLE21=Richard Berry and the Dreamers - Jelly Roll
TTITLE22=Richard Berry - Mad About You (take 5)
TTITLE23=Richard Berry - I Am Bewildered
TTITLE24=Rickey and Jennell - This Time It's Real
TTITLE25=Richard Berry - Predeohlicious
TTITLE26=Richard Berry and the Cadets - God Gave Me You
TTITLE27=Richard Berry - Next Time
EXTD=
EXTT0=
EXTT1=
EXTT2=
EXTT3=
EXTT4=
EXTT5=
EXTT6=
EXTT7=
EXTT8=
EXTT9=
EXTT10=
EXTT11=
EXTT12=
EXTT13=
EXTT14=
EXTT15=
EXTT16=
EXTT17=
EXTT18=
EXTT19=
EXTT20=
EXTT21=
EXTT22=
EXTT23=
EXTT24=
EXTT25=
EXTT26=
EXTT27=
PLAYORDER=
